<?xml version="1.0" encoding="utf-8"?>
<!-- Generator: Adobe Illustrator 26.1.0, SVG Export Plug-In . SVG Version: 6.00 Build 0)  -->
<svg version="1.1" id="Layer_1" xmlns="http://www.w3.org/2000/svg" xmlns:xlink="http://www.w3.org/1999/xlink" x="0px" y="0px"
	 viewBox="0 0 792 612" style="enable-background:new 0 0 792 612;" xml:space="preserve">
<style type="text/css">
	.st0{fill:#FFFFFF;}
	.st1{clip-path:url(#SVGID_00000026154478986155731050000015432735992928532904_);}
	.st2{fill:#FFFFFF;stroke:#FFFFFF;stroke-width:1.0700001;stroke-linecap:round;stroke-linejoin:round;stroke-miterlimit:10;}
	.st3{fill:none;}
	.st4{fill:none;stroke:#FFFFFF;stroke-width:0.53;stroke-linejoin:round;stroke-miterlimit:10;}
	.st5{fill:none;stroke:#FFFFFF;stroke-width:1.0700001;stroke-linejoin:round;stroke-miterlimit:10;}
	.st6{fill:none;stroke:#0000FF;stroke-width:1.0700001;stroke-linejoin:round;stroke-miterlimit:10;}
	
		.st7{fill:none;stroke:#000000;stroke-width:1.0700001;stroke-linejoin:round;stroke-miterlimit:10;stroke-dasharray:5.6900001,5.6900001;}
	.st8{font-family:'ArialMT';}
	.st9{font-size:11.04px;}
	.st10{stroke:#000000;stroke-width:1.0700001;stroke-miterlimit:10;}
	.st11{enable-background:new    ;}
	.st12{fill:#0000FF;}
	.st13{fill:#0000FF;stroke:#0000FF;stroke-width:1.0700001;stroke-miterlimit:10;}
	.st14{fill:#00FF00;}
	.st15{fill:#00FF00;stroke:#00FF00;stroke-width:1.0700001;stroke-miterlimit:10;}
	.st16{clip-path:url(#SVGID_00000061473545582230775310000014365624797188805537_);}
	.st17{fill:none;stroke:#000000;stroke-width:2.1300001;stroke-linejoin:round;stroke-miterlimit:10;}
	.st18{fill:#4D4D4D;}
	.st19{font-size:16px;}
	.st20{fill:none;stroke:#333333;stroke-width:1.0700001;stroke-linejoin:round;stroke-miterlimit:10;}
	.st21{font-size:20px;}
	.st22{fill:none;stroke:#000000;stroke-width:2;stroke-miterlimit:10;}
</style>
<rect class="st0" width="792" height="612"/>
<g>
	<defs>
		<rect id="SVGID_1_" width="792" height="612"/>
	</defs>
	<clipPath id="SVGID_00000137837475260128142470000004234400130008627131_">
		<use xlink:href="#SVGID_1_"  style="overflow:visible;"/>
	</clipPath>
	<g style="clip-path:url(#SVGID_00000137837475260128142470000004234400130008627131_);">
		<rect class="st2" width="792" height="612"/>
	</g>
</g>
<rect x="54.1599998" y="5.48" class="st3" width="732.3599854" height="559.5900269"/>
<g>
	<line class="st4" x1="54.1599998" y1="486.230011" x2="786.5200195" y2="486.230011"/>
	<line class="st4" x1="54.1599998" y1="345.4100037" x2="786.5200195" y2="345.4100037"/>
	<line class="st4" x1="54.1599998" y1="204.5899963" x2="786.5200195" y2="204.5899963"/>
	<line class="st4" x1="54.1599998" y1="63.7700005" x2="786.5200195" y2="63.7700005"/>
	<line class="st4" x1="158.7200012" y1="565.0700073" x2="158.7200012" y2="5.48"/>
	<line class="st4" x1="292.1900024" y1="565.0700073" x2="292.1900024" y2="5.48"/>
	<line class="st4" x1="425.6499939" y1="565.0700073" x2="425.6499939" y2="5.48"/>
	<line class="st4" x1="559.1199951" y1="565.0700073" x2="559.1199951" y2="5.48"/>
	<line class="st4" x1="692.5900269" y1="565.0700073" x2="692.5900269" y2="5.48"/>
	<line class="st5" x1="54.1599998" y1="556.6400146" x2="786.5200195" y2="556.6400146"/>
	<line class="st5" x1="54.1599998" y1="415.8200073" x2="786.5200195" y2="415.8200073"/>
	<line class="st5" x1="54.1599998" y1="275" x2="786.5200195" y2="275"/>
	<line class="st5" x1="54.1599998" y1="134.1799927" x2="786.5200195" y2="134.1799927"/>
	<line class="st5" x1="91.9899979" y1="565.0700073" x2="91.9899979" y2="5.48"/>
	<line class="st5" x1="225.4600067" y1="565.0700073" x2="225.4600067" y2="5.48"/>
	<line class="st5" x1="358.9200134" y1="565.0700073" x2="358.9200134" y2="5.48"/>
	<line class="st5" x1="492.3900146" y1="565.0700073" x2="492.3900146" y2="5.48"/>
	<line class="st5" x1="625.8499756" y1="565.0700073" x2="625.8499756" y2="5.48"/>
	<line class="st5" x1="759.3200073" y1="565.0700073" x2="759.3200073" y2="5.48"/>
	<polyline class="st6" points="87.4499969,422.7600098 87.4700012,423.4100037 87.4800034,424.1499939 87.4899979,433.75 
		88.9000015,430.7000122 88.9800034,427.25 88.9899979,425.6900024 89.0100021,424.2000122 121.8199997,424.5100098 
		121.8700027,424.6600037 121.8799973,424.8599854 121.9599991,426.7000122 137.2400055,428.5799866 146.3500061,429.5400085 
		146.3699951,432.0100098 146.4199982,434.519989 146.4799957,435.9100037 146.4900055,437.3500061 146.5599976,438.8299866 
		146.5700073,439.3699951 146.5700073,440.2000122 146.6100006,441.2600098 146.6399994,441.2099915 146.6900024,447.7900085 
		146.7200012,454.4500122 146.7400055,461.2000122 146.75,471.7999878 146.7700043,482.4599915 154.9400024,490.0299988 
		155.0099945,497.7099915 155.0099945,505.6499939 155.0299988,504.7900085 155.0599976,503.6099854 155.0700073,502.2399902 
		155.1199951,501.0700073 155.1199951,500.0299988 155.1399994,500.0799866 155.3000031,500.25 166.8399963,500.5 
		166.8500061,500.6499939 166.8500061,501.75 166.8600006,502.8099976 166.8800049,503.4700012 166.8800049,504.2399902 
		166.8899994,504.6300049 166.8999939,505.1700134 166.9199982,505.3900146 166.9199982,505.730011 166.9199982,506.1900024 
		166.9299927,506.2399902 167.0599976,506.3999939 167.0800018,502.9299927 167.0800018,499.3599854 167.2299957,494.75 
		167.2400055,488.7200012 167.25,488.4899902 167.3000031,489.3999939 167.3099976,490.4100037 167.3099976,491.2900085 
		167.3300018,493.9200134 167.3399963,496.6600037 167.4400024,498.4700012 167.4499969,500.4500122 167.4600067,502.5400085 
		167.4600067,504.730011 167.4600067,503.6700134 167.4900055,502.1799927 167.4900055,500.8999939 167.5,499.0499878 
		167.5200043,496.3699951 167.5299988,493.6099854 167.9799957,490.9500122 168.0099945,488.5499878 168.0899963,485.269989 
		168.0899963,482.0899963 168.1100006,479 168.1300049,474.7600098 168.1300049,470.8500061 168.1600037,467.0299988 
		168.1900024,463.4599915 168.2299957,458.4500122 168.2299957,455.5899963 168.2599945,455.7200012 168.2599945,455.9100037 
		168.2700043,456.1700134 168.2700043,456.4899902 168.2899933,455.7600098 168.2899933,455.0899963 168.3399963,454.2999878 
		170.9299927,453.5899963 170.9299927,454.3200073 170.9400024,455.1300049 170.9600067,456 170.9900055,456.9500122 
		171.0200043,457.980011 171.1999969,459.0700073 171.2100067,460.2600098 171.25,462.980011 171.2599945,464.3599854 
		171.2700043,465.9500122 171.2700043,467.4400024 171.2700043,468.1799927 171.2799988,468.3099976 171.3099976,468.519989 
		171.3699951,468.8099976 171.3899994,468.5100098 171.3899994,468.3099976 171.4499969,469.4400024 172.4100037,470.7099915 
		172.4199982,472.0700073 172.4199982,472.7200012 172.4299927,473.5299988 172.4799957,473.9100037 172.4799957,474.480011 
		172.5,475.1400146 172.5299988,475.75 172.5299988,476.1700134 172.5500031,476.3399963 172.5599976,477.4599915 
		172.5800018,478.3699951 172.6100006,479.9899902 172.6499939,456.1099854 172.6600037,432.3399963 230.8500061,415.9400024 
		230.9199982,399.6000061 234.9700012,383.2999878 234.9700012,367.0400085 242.8899994,350.8299866 242.8999939,348.5599976 
		242.9100037,346.9400024 242.9400024,345.730011 242.9499969,342.769989 242.9700012,339.8099976 242.9700012,337.2799988 
		243.1100006,334.730011 243.1199951,330.5499878 243.1399994,326.3399963 243.1799927,321.5599976 247.0500031,297.5400085 
		247.0800018,281.5100098 247.5500031,265.4400024 259.4400024,249.3099976 266.7200012,238.5800018 266.7399902,227.7700043 
		266.75,220.6900024 266.8500061,216.4299927 266.8900146,211.8300018 266.9599915,209.3099976 266.9899902,206.6799927 
		273.3299866,203.9499969 273.3299866,201.1100006 273.4299927,197.8800049 273.4299927,194.5299988 273.4400024,191.0700073 
		273.4700012,188.8999939 273.5100098,187.8800049 273.5400085,187.5800018 273.7000122,186.9400024 273.7200012,185.9799957 
		273.7399902,185.0299988 273.75,183.8300018 273.7900085,182.4400024 273.8200073,181.6499939 273.8399963,181.3200073 
		273.8599854,180.8300018 273.8999939,180.0099945 274.1199951,179.0299988 274.2000122,177.8999939 274.2399902,176.4499969 
		274.2799988,174.7200012 274.2999878,172.8099976 274.3900146,170.7799988 274.4599915,168.5700073 274.4700012,166.2299957 
		274.5499878,163.1399994 274.5700073,159.6600037 274.6199951,156.0599976 274.6300049,156.9199982 274.8299866,157.6199951 
		276.0400085,157.6999969 276.1099854,157.6300049 276.1199951,157.4100037 276.1199951,157.0399933 276.1300049,156.5299988 
		276.1600037,155.8600006 276.1900024,155.0899963 276.2000122,154.7400055 276.3099976,158.4799957 276.3500061,163.7599945 
		276.3599854,171.4499969 276.3699951,172.4199982 276.3900146,174.1900024 276.3999939,177.3300018 276.4200134,180.3999939 
		276.4200134,196.5099945 276.4500122,206.9299927 276.4500122,217.4900055 276.480011,256.7200012 276.4899902,285.3599854 
		276.5400085,313.9200134 276.5499878,342.4299927 276.5700073,370.8800049 276.5799866,397.4599915 276.6000061,423.8500061 
		276.6300049,429.9200134 276.7200012,436.0400085 276.75,442.25 276.8399963,452.8099976 276.8399963,462.7399902 
		276.8599854,471.9100037 276.9100037,478.7099915 276.9400024,483.4400024 276.9500122,487.1499939 276.980011,490.9500122 
		277.019989,493.9100037 277.0299988,496.7399902 277.0799866,498.8299866 277.1600037,500.3599854 277.1700134,501.5100098 
		280.4500122,502.7900085 285.25,504.1600037 285.6300049,506.6900024 285.6499939,509.3299866 285.6499939,511.519989 
		285.6600037,513.8200073 285.6700134,513.2999878 285.730011,512.9299927 285.7399902,512.6799927 285.7399902,512.5999756 
		285.75,512.6300049 285.7600098,512.7999878 285.7999878,513.6900024 285.8099976,514.3300171 285.8299866,514.7399902 
		285.8500061,515.2800293 285.8599854,515.6500244 285.9299927,516.1400146 290.6300049,512.3200073 290.6499939,508.6400146 
		290.7799988,504.7799988 290.7900085,502.3900146 290.7999878,500.1199951 290.8800049,497.9700012 291.8200073,495.9400024 
		291.8599854,493.3699951 291.9599915,490.730011 292.1300049,487.3699951 292.1400146,483.230011 292.3099976,478.1000061 
		292.3200073,471.2000122 292.3399963,464.3800049 292.3999939,455.4899902 292.4299927,446.6700134 292.4400024,437.9200134 
		292.4500122,429.2399902 292.4599915,428.8999939 292.480011,428.6000061 292.4899902,428.3399963 292.5100098,428.1099854 
		292.5100098,426.9100037 292.5299988,425.4899902 292.5400085,423.1199951 292.5499878,419.5599976 292.5599976,417.6700134 
		294.3399963,417.3800049 294.3500061,416.7999878 294.5599976,417.6799927 294.8599854,418.5799866 294.8699951,419.269989 
		294.9200134,419.9899902 294.9500122,420.9500122 295.3200073,423.8299866 295.3500061,428.9700012 295.3599854,434.1499939 
		295.3800049,438.8800049 295.4599915,442.2000122 328.7900085,445.5899963 328.7900085,451.1600037 328.7999878,454.9700012 
		328.8599854,458.8599854 328.8900146,462.9100037 328.8999939,460.8999939 328.9100037,459.1199951 328.9200134,457.3500061 
		328.9400024,455.4299927 328.9500122,455.0700073 328.9500122,454.4599915 328.9599915,454.0100098 328.9899902,453.3399963 
		329,451.7200012 329.0400085,449.9500122 329.0499878,449.6499939 329.0799866,448.2799988 329.1000061,446.7799988 
		329.1099854,445.3500061 329.1300049,442.8099976 329.1600037,446.5100098 329.1600037,449.4200134 329.1700134,451.8699951 
		329.1799927,455.5299988 329.2099915,459.2799988 329.230011,463.1000061 329.230011,466.5400085 329.2399902,470.0700073 
		329.25,473.6799927 329.269989,477.269989 329.4100037,480.9500122 329.4100037,484.6900024 329.519989,474.7999878 
		329.519989,465 329.6700134,454.8699951 330.4200134,445.7000122 330.5499878,421.3999939 330.5599976,395.480011 
		330.5700073,368.4700012 330.5799866,341.5100098 330.6900024,322.8900146 330.6900024,309.5 330.7099915,295.3900146 
		330.7099915,281.2099915 330.7200012,261.5899963 330.7399902,232.5800018 331.2799988,225.1999969 331.2900085,217.7299957 
		331.4700012,210.1199951 335.6000061,202.0599976 335.6099854,193.5299988 335.6300049,184.4400024 335.6300049,174.6100006 
		335.6700134,165.5700073 335.8800049,156.3800049 335.9500122,147.0700073 335.9899902,146.4400024 336.0100098,146.2200012 
		336.1600037,146.4400024 336.3099976,147.1399994 336.3599854,148.3800049 336.4400024,149.4700012 336.480011,150.4799957 
		336.4899902,151.2899933 336.5299988,156.7100067 336.5400085,162.3899994 336.5599976,167.9199982 336.5899963,173.3200073 
		336.6099854,177.0099945 336.6099854,180.5899963 336.6199951,184.3999939 347.5400085,188.1100006 361.6600037,193.7700043 
		361.769989,199.3099976 366.0700073,204.75 366.0799866,210.1000061 366.0799866,215.0700073 366.1600037,219.5 
		366.1600037,223.5800018 366.1799927,227.6000061 366.1900024,233.7899933 366.4299927,240.5899963 366.480011,251.1999969 
		366.4899902,267.0899963 366.519989,284.6300049 370.5400085,302.1099854 370.5400085,318.4599915 370.7200012,334.7799988 
		370.7900085,350.980011 370.8599854,353.3500061 370.8699951,355.75 370.8900146,360.519989 370.9400024,363.5400085 
		370.980011,366.2600098 371.0100098,374.1900024 371.0299988,379.7900085 371.0700073,383.480011 371.0799866,385.9599915 
		372.4400024,388.5100098 372.4500122,393.2900085 372.4500122,396.5899963 372.5599976,399.9299927 372.5599976,402.8500061 
		374.7399902,404.3999939 374.7600098,405.6700134 374.7600098,408.7200012 374.8500061,411.5799866 374.8699951,414.5100098 
		374.8999939,417.6600037 374.9700012,420.8699951 375.0799866,424.1799927 375.1700134,430.0400085 375.1900024,435.9599915 
		375.3399963,440.0499878 375.3500061,444.1900024 375.3800049,442.0700073 375.3800049,438.3599854 375.3999939,434.3099976 
		375.3999939,430.0599976 375.4100037,425.8999939 375.4100037,422.4500122 375.4100037,419.0599976 375.4200134,413.6199951 
		375.5499878,407.7000122 375.5499878,401.5 375.5599976,396.0299988 375.5700073,390.2600098 375.5799866,383.9500122 
		375.5799866,377.6799927 375.5899963,368.1700134 375.6000061,359.5899963 375.6300049,351.0299988 375.6900024,342.480011 
		375.7099915,333.9299927 375.7099915,324.6600037 375.730011,315.3800049 375.730011,306.0899963 375.8299866,300.4899902 
		375.8399963,294.9299927 375.8500061,303.2999878 375.8599854,316.2000122 375.8699951,328.4400024 375.8699951,340.6799927 
		375.8800049,353.7200012 375.8800049,363.7099915 375.8900146,359.5700073 375.8999939,355.4700012 375.8999939,351.5299988 
		375.9100037,347.5799866 375.9200134,328.269989 375.9299927,308.9899902 375.9400024,289.7200012 375.9500122,277.1900024 
		375.980011,264.6499939 375.980011,255.9400024 375.980011,247.1600037 376.0400085,234.0200043 376.0899963,222.2400055 
		376.1099854,209.75 376.1099854,197.1900024 376.1400146,188.3399963 376.6799927,179.4100037 376.6799927,171.0899963 
		376.7099915,162.6600037 376.7200012,154.1100006 376.7399902,145.4600067 376.7900085,143.8500061 376.8099976,141.1699982 
		376.8500061,139.5 377.019989,136.7200012 377.0499878,135.0399933 377.1199951,133.4600067 377.3800049,132.6499939 
		377.3900146,131.5899963 382.1199951,129.6900024 382.1400146,127.8199997 382.1700134,126.7099991 382.1799927,125.4499969 
		382.1900024,124.8099976 382.1900024,124.0299988 382.2000122,123.6900024 382.2000122,123.7900009 382.2000122,123.6600037 
		382.2099915,123.9300003 382.2200012,124.0599976 382.2399902,124.5999985 382.2399902,124.5199966 382.25,124.9599991 
		382.2600098,125.1100006 382.2600098,124.6100006 382.269989,124.6200027 392.4599915,123.8499985 392.6099854,122.9400024 
		392.6300049,121.7799988 407.0100098,120.6999969 407.0899963,119.4700012 426.5899963,118.1999969 426.6000061,116.7799988 
		427.3299866,115.2600021 427.3900146,115.2799988 428.8900146,115.1399994 432.2600098,114.4000015 432.2999878,113.8499985 
		449.2900085,113.1600037 503.3200073,113.8399963 503.3299866,114.3600006 503.3500061,114.7300034 503.3500061,114.9499969 
		503.3699951,115.3499985 503.3699951,115.6800003 503.3900146,116.25 506.2999878,116.2600021 506.3699951,115.6800003 
		506.4599915,115.3700027 506.5599976,114.9700012 506.6799927,114.1299973 506.6799927,114.3099976 506.9299927,115.9100037 
		506.9700012,117.3499985 506.9899902,118.6399994 506.9899902,119.7799988 507.0499878,120.1500015 507.0599976,119.9599991 
		507.1199951,120.1600037 507.1300049,120.2200012 507.1400146,119.5699997 507.1400146,118.7699966 507.1600037,118.5100021 
		507.1700134,118.6399994 507.1799927,118.6100006 507.2200012,118.3799973 507.230011,117.9899979 507.2399902,117.4599991 
		508.2000122,117.2699966 508.2000122,116.9400024 508.2099915,116.4599991 508.2399902,116.2799988 508.25,116.3399963 
		508.25,116.2600021 508.269989,116.0299988 508.3200073,115.5699997 508.3500061,114.9700012 508.3699951,114.5500031 
		508.3699951,113.9700012 508.3800049,114.2200012 508.3900146,114.3099976 508.4100037,114.5 508.519989,114.5400009 
		510.2799988,114.4199982 510.2900085,114.1600037 511.3699951,113.7300034 511.3699951,113.4199982 511.3900146,112.9499969 
		511.3999939,112.9100037 511.4299927,113.6600037 511.5,114.2900009 511.7200012,114.7399979 511.7200012,115.25 
		512.3499756,115.8099976 512.3800049,116.4400024 520.3200073,117.1900024 520.3300171,118.1600037 537.8800049,119.3700027 
		538.0499878,120.7900009 538.0599976,121.5899963 538.0700073,122.0999985 538.0700073,122.1600037 538.1199951,122.0299988 
		538.1400146,121.4599991 538.1599731,120.7099991 538.1699829,119.8199997 538.1799927,123.9899979 538.1799927,126.8199997 
		538.1900024,129.4799957 538.5,131.8099976 538.5499878,133.9799957 538.5599976,135.2100067 538.5900269,136.1799927 
		538.5900269,136.3600006 538.6500244,134.0800018 538.6500244,131.6699982 538.6699829,132.5200043 538.6699829,132.6399994 
		538.7000122,132.6199951 538.710022,132.6100006 538.710022,132.3699951 538.7299805,131.9799957 538.7399902,131.3500061 
		538.7600098,130.5800018 545.4000244,130.3999939 545.7299805,130.6999969 545.7399902,131.4799957 545.75,132.1000061 
		545.7800293,132.5599976 559.5499878,132.8800049 569.5800171,132.9900055 569.5999756,136.5200043 569.7600098,141.4199982 
		569.7700195,148.6900024 569.8200073,155.7899933 574,163.2200012 578.5100098,170.4600067 578.5599976,177.2400055 
		578.5700073,183.8399963 578.5900269,189.8500061 578.6699829,195.4400024 579.2800293,201.9799957 579.3599854,208.4199982 
		579.3800049,217.9400024 579.9400024,224.2799988 579.9400024,233.3699951 579.9699707,242.2700043 579.9699707,250.9900055 
		580.0499878,259.519989 580.0700073,267.8800049 580.0800171,276.0499878 580.0900269,284 580.1300049,288.9299927 
		580.1400146,293.3999939 580.1599731,295.7999878 594.0900269,298.1400146 594.210022,300.4100037 594.25,302.6499939 
		594.2700195,307.4700012 594.3800049,310.2399902 594.3900146,315.5400085 594.4000244,337.3999939 594.4199829,370.7600098 
		595.1199951,378.1300049 595.2000122,384.9100037 595.4099731,389.8299866 595.4099731,393.1000061 595.4400024,395.3099976 
		595.4500122,396.3699951 595.4899902,397.5499878 595.5900269,407.9899902 595.5999756,423.7999878 595.6099854,435.230011 
		595.6099854,446.6199951 595.789978,445.3200073 595.789978,443.2000122 595.7999878,440.3200073 595.8400269,436.2099915 
		595.8499756,432.1600037 595.8800049,426.75 595.9099731,425.6799927 595.9299927,423.3399963 595.9299927,420.6900024 
		595.9699707,418.0899963 595.9899902,415.5499878 596,413.0400085 596.0100098,410.769989 596.039978,407.3900146 
		596.039978,402.2999878 596.0499878,395.2200012 596.0499878,395.8599854 596.1300049,396.5299988 596.1400146,397.230011 
		596.1599731,399.6499939 596.1599731,401.8099976 596.1699829,403.980011 596.2000122,405.769989 596.2000122,407.6000061 
		596.2000122,409.5400085 596.210022,411.5299988 596.25,413.5400085 596.2700195,414.4299927 596.2800293,414.2799988 
		596.289978,412.9500122 596.9899902,411.6700134 597.039978,410.4100037 597.0499878,409.1600037 597.0599976,397.6099854 
		597.0900269,386.0899963 597.0900269,374.6400146 597.0999756,377.3399963 597.5800171,378.2999878 597.9699707,379.6400146 
		597.9799805,380.6300049 597.9899902,379.9500122 598.0100098,379.269989 598.0599976,378.6099854 598.0599976,377.5599976 
		598.0700073,377.0499878 598.0800171,380.6600037 598.0800171,384.269989 598.0999756,387.8900146 598.1199951,388.3900146 
		598.1300049,388.6900024 598.1500244,388.6700134 598.1699829,388.4700012 599.5200195,388.6700134 599.5599976,390.5599976 
		611.9299927,392.480011 611.9299927,394.4200134 612.0900269,396.7399902 612.3599854,399.0799866 612.4199829,401.230011 
		612.460022,403.3999939 612.4699707,405.3200073 612.6900024,406.8900146 612.8099976,408.480011 612.8499756,410.1099854 
		612.8499756,410.2200012 612.9199829,409.9899902 612.9299927,409.7999878 613.0599976,409.2999878 613.0700073,408.5100098 
		613.1699829,407.7399902 613.1699829,407.0100098 613.2000122,405.9899902 613.2399902,406.6499939 614.6300049,406.9500122 
		614.6500244,407.2799988 614.6500244,406.3399963 614.6699829,405.4400024 614.6799927,406.230011 614.7700195,407.0499878 
		614.7700195,407.5799866 614.7800293,408.5 614.8099976,409.8299866 615.0200195,411.7999878 615.0300293,413.5499878 
		615.9199829,417.3399963 615.9400024,424.1799927 615.9699707,430.3800049 615.9899902,434.1000061 616,436.2000122 
		616.1199951,438.3599854 616.1199951,440.5599976 616.1199951,442.4299927 616.1300049,443.1900024 616.1300049,443.769989 
		616.1400146,443.0899963 616.1500244,444.0799866 616.1699829,444.8099976 616.539978,445.6700134 616.5599976,446.5799866 
		616.5900269,447.5400085 616.5999756,447.1600037 616.6099854,446.5400085 616.6099854,446.2399902 616.6699829,446.1099854 
		616.6799927,462.0100098 618.4699707,473.2000122 618.4799805,482.2999878 618.5100098,491.4599915 618.5200195,498.7799988 
		618.5800171,506.2099915 618.6400146,513.7399902 618.710022,520.6300049 618.7299805,527.8300171 618.7299805,529.2999878 
		618.7700195,529.5100098 623.8300171,529.8599854 626.0599976,530.3499756 626.2000122,530.9899902 626.25,531.7600098 
		629.9799805,532.5999756 629.9799805,534.0200195 630.0700073,536.2700195 630.2000122,536.9299927 630.210022,538.210022 
		630.2199707,539.6300049 630.2299805,539.4799805 630.3300171,539.5200195 630.4199829,536.1099854 630.4699707,533.2600098 
		630.4799805,530.4099731 630.5800171,527.7000122 635.9000244,524.6400146 635.9899902,520.8099976 635.9899902,517.1099854 
		636.0700073,514.9299927 636.0900269,512.9799805 636.0999756,511.980011 638.6699829,511.1000061 647.7600098,510.3399963 
		647.7700195,509.6799927 647.789978,509.1499939 656.8099976,508.7200012 656.8099976,508.2900085 656.8099976,509.3399963 
		656.8300171,510.5100098 656.8300171,511.2600098 656.9000244,511.980011 656.9099731,512.2700195 656.9899902,512.6799927 
		657.0700073,512.6400146 658.539978,513.5200195 658.539978,514.5300293 658.5499878,515.1799927 658.5599976,515.8300171 
		658.7700195,516.1500244 658.8099976,517.3099976 658.8200073,518.5999756 658.8300171,520.0200195 662.4899902,521.4000244 
		662.539978,522.9000244 662.5499878,524.539978 662.5900269,526.4099731 662.6400146,529.3400269 662.6500244,531.5800171 
		662.6599731,533.6599731 663.7999878,533.4799805 664.0499878,533.4000244 725.4299927,533.4099731 725.4400024,533.5499878 
		738.6599731,533.8699951 738.6699829,530.460022 738.7000122,528.2000122 738.7199707,526.6500244 738.7299805,525.2399902 
		738.7299805,524.25 744.4199829,523.3900146 747.960022,522.5300293 747.9799805,521.8599854 748.0100098,521.1400146 
		752.5,520.1799927 752.5499878,519.3599854 752.5999756,518.6599731 752.6300049,517.9299927 752.7800293,517.1699829 
		752.9799805,516.539978 752.9799805,517.4699707 752.9899902,517.9099731 752.9899902,518.4799805 752.9899902,519.8699951 
		753.0100098,520.8900146 753.0200195,521.9000244 753.0700073,523.0499878 753.0900269,524.2999878 753.0900269,525.6799927 
		753.1500244,525.2399902 753.2299805,524.9299927 	"/>
	<line class="st7" x1="54.1599998" y1="134.1799927" x2="786.5200195" y2="134.1799927"/>
	<text transform="matrix(1 0 0 1 383.6401367 59.0800171)" class="st8 st9">spidroin-1-like</text>
	<rect x="416.1900024" y="63.7700005" class="st10" width="3.6199951" height="23.4699974"/>
	<text transform="matrix(1 0 0 1 480.4224854 24.3135986)" class="st8 st9">cytochrome P450</text>
	<text transform="matrix(1 0 0 1 504.6766357 35.8396606)" class="st8 st9">2J5-like</text>
	<rect x="565.4000244" y="63.7700005" class="st10" width="0.3099976" height="23.4699974"/>
	<rect x="569.4299927" y="63.7700005" class="st10" width="0.460022" height="23.4699974"/>
	<rect x="571.3900146" y="63.7700005" class="st10" width="0.5200195" height="23.4699974"/>
	<rect x="572.9400024" y="63.7700005" class="st10" width="0.6799927" height="23.4699974"/>
	<rect x="575.1900024" y="63.7700005" class="st10" width="0.6300049" height="23.4699974"/>
	<rect x="575.1900024" y="63.7700005" class="st10" width="2.9099731" height="23.4699974"/>
	<rect x="579.3400269" y="63.7700005" class="st10" width="0.2299805" height="23.4699974"/>
	<text transform="matrix(1 0 0 1 218.3312378 59.0800171)" class="st8 st9">cytochrome P450 2J6</text>
	<rect x="416.1900024" y="63.7700005" class="st10" width="3.6199951" height="23.4699974"/>
	<rect x="266.1000061" y="63.7700005" class="st10" width="0.7900085" height="23.4699974"/>
	<rect x="268.3800049" y="63.7700005" class="st10" width="0.519989" height="23.4699974"/>
	<rect x="269.9299927" y="63.7700005" class="st10" width="0.6799927" height="23.4699974"/>
	<rect x="272.2000122" y="63.7700005" class="st10" width="0.6300049" height="23.4699974"/>
	<rect x="274.3099976" y="63.7700005" class="st10" width="0.6199951" height="23.4699974"/>
	<rect x="276.1499939" y="63.7700005" class="st10" width="1.1900024" height="23.4699974"/>
	<text transform="matrix(1 0 0 1 77.9039001 49.1799927)" class="st8 st9">uncharacterized</text>
	<rect x="87.4102707" y="50.606369" class="st3" width="62.5499992" height="13.0585938"/>
	<text transform="matrix(1 0 0 1 87.4101562 60.0805664)" class="st11"><tspan x="0" y="0" class="st8 st9">LOC58491</tspan><tspan x="56.4116211" y="0" class="st8 st9">9</tspan></text>
	<rect x="110.8899994" y="63.7700005" class="st10" width="0.2600021" height="23.4699974"/>
	<rect x="117.2799988" y="63.7700005" class="st10" width="0.3000031" height="23.4699974"/>
	<rect x="123.3399963" y="63.7700005" class="st10" width="0.1399994" height="23.4699974"/>
	<text transform="matrix(1 0 0 1 622.2183838 105.0812378)" class="st12 st8 st9">uncharacterized</text>
	<text transform="matrix(1 0 0 1 631.7247925 114.9812012)" class="st12 st8 st9">LOC576390</text>
	<rect x="613" y="63.7700005" class="st13" width="0.289978" height="23.4699974"/>
	<rect x="614.6400146" y="63.7700005" class="st13" width="0.0930176" height="23.4699974"/>
	<text transform="matrix(1 0 0 1 588.9580688 22.9824829)" class="st8 st9">putative ankyrin repeat protein</text>
	<text transform="matrix(1 0 0 1 640.508606 34.8824463)" class="st8 st9">RF_0381</text>
	<rect x="598.460022" y="63.7700005" class="st10" width="0.8900146" height="23.4699974"/>
	<rect x="601.1300049" y="63.7700005" class="st10" width="0.5999756" height="23.4699974"/>
	<rect x="605.9899902" y="63.7700005" class="st10" width="0.3900146" height="23.4699974"/>
	<rect x="611.3499756" y="63.7700005" class="st10" width="0.5100098" height="23.4699974"/>
	<rect x="612.6199951" y="63.7700005" class="st10" width="0.0999756" height="23.4699974"/>
	<text transform="matrix(1 0 0 1 545.6654053 113.03125)" class="st14 st8 st9">mucin-2-like</text>
	<rect x="593.6400146" y="63.7700005" class="st15" width="0.0130005" height="23.4699974"/>
	<rect x="586.960022" y="63.7700005" class="st15" width="0.7800293" height="23.4699974"/>
	<rect x="584.5300293" y="63.7700005" class="st15" width="2.0700073" height="23.4699974"/>
</g>
<g>
	<defs>
		<rect id="SVGID_00000129182588035596069620000001608571883088415632_" width="792" height="612"/>
	</defs>
	<clipPath id="SVGID_00000067194900307409549350000017417692655178021269_">
		<use xlink:href="#SVGID_00000129182588035596069620000001608571883088415632_"  style="overflow:visible;"/>
	</clipPath>
	<g style="clip-path:url(#SVGID_00000067194900307409549350000017417692655178021269_);">
		<line class="st17" x1="54.1599998" y1="565.0700073" x2="54.1599998" y2="5.48"/>
		<text transform="matrix(1 0 0 1 26.9878082 562.3800049)" class="st18 st8 st19">0.0</text>
		<text transform="matrix(1 0 0 1 26.9878082 421.5599976)" class="st18 st8 st19">0.3</text>
		<text transform="matrix(1 0 0 1 26.9878082 280.7399902)" class="st18 st8 st19">0.6</text>
		<text transform="matrix(1 0 0 1 26.9878082 139.9199829)" class="st18 st8 st19">0.9</text>
		<line class="st20" x1="51.4199982" y1="556.6400146" x2="54.1599998" y2="556.6400146"/>
		<line class="st20" x1="51.4199982" y1="415.8200073" x2="54.1599998" y2="415.8200073"/>
		<line class="st20" x1="51.4199982" y1="275" x2="54.1599998" y2="275"/>
		<line class="st20" x1="51.4199982" y1="134.1799927" x2="54.1599998" y2="134.1799927"/>
		<line class="st17" x1="54.1599998" y1="565.0700073" x2="786.5200195" y2="565.0700073"/>
		<line class="st20" x1="91.9899979" y1="567.8099976" x2="91.9899979" y2="565.0700073"/>
		<line class="st20" x1="225.4600067" y1="567.8099976" x2="225.4600067" y2="565.0700073"/>
		<line class="st20" x1="358.9200134" y1="567.8099976" x2="358.9200134" y2="565.0700073"/>
		<line class="st20" x1="492.3900146" y1="567.8099976" x2="492.3900146" y2="565.0700073"/>
		<line class="st20" x1="625.8499756" y1="567.8099976" x2="625.8499756" y2="565.0700073"/>
		<line class="st20" x1="759.3200073" y1="567.8099976" x2="759.3200073" y2="565.0700073"/>
		<rect x="63.0720291" y="567.7495117" class="st3" width="57.8400002" height="18.9257812"/>
		<text transform="matrix(1 0 0 1 63.0722656 581.4804688)" class="st18 st8 st19">650,000</text>
		<rect x="196.542038" y="567.7495117" class="st3" width="57.8400002" height="18.9257812"/>
		<text transform="matrix(1 0 0 1 196.5419922 581.4804688)" class="st18 st8 st19">700,000</text>
		<rect x="330.0020447" y="567.7495117" class="st3" width="57.8400002" height="18.9257812"/>
		<text transform="matrix(1 0 0 1 330.0019531 581.4804688)" class="st18 st8 st19">750,000</text>
		<rect x="463.4720459" y="567.7495117" class="st3" width="57.8400002" height="18.9257812"/>
		<text transform="matrix(1 0 0 1 463.4716797 581.4804688)" class="st18 st8 st19">800,000</text>
		<rect x="596.9320068" y="567.7495117" class="st3" width="57.8400002" height="18.9257812"/>
		<text transform="matrix(1 0 0 1 596.9316406 581.4804688)" class="st18 st8 st19">850,000</text>
		<rect x="730.4020386" y="567.7495117" class="st3" width="57.8400002" height="18.9257812"/>
		<text transform="matrix(1 0 0 1 730.4023438 581.4804688)" class="st18 st8 st19">900,000</text>
		<rect x="169.0948639" y="584.9368896" class="st3" width="502.5299988" height="23.6572266"/>
		<text transform="matrix(1 0 0 1 169.0947266 602.0996094)" class="st8 st21">Position on Chromosome NW_022145601.1 (base pairs)</text>
		<rect x="2.6052446" y="127.9701996" class="st3" width="23.7422295" height="314.5996094"/>
		<text transform="matrix(0 -1 1 0 19.7685547 442.5693359)" class="st11"><tspan x="0" y="0" class="st8 st21">Probability</tspan><tspan x="93.3789062" y="0" class="st8 st21"> </tspan><tspan x="98.5673828" y="0" class="st8 st21">of</tspan><tspan x="115.2470703" y="0" class="st8 st21"> </tspan><tspan x="120.4355469" y="0" class="st8 st21">Introgressed</tspan><tspan x="231.6074219" y="0" class="st8 st21"> </tspan><tspan x="236.7958984" y="0" class="st8 st21">Ancestry</tspan></text>
	</g>
</g>
<g>
	<g>
		<line class="st22" x1="542.2528076" y1="37.0717773" x2="560.8250122" y2="58.2871094"/>
		<g>
			<polygon points="557.1159668,58.5478516 560.1740112,57.543457 561.5740967,54.6451416 563.9707031,61.8804932 			"/>
		</g>
	</g>
</g>
<g>
	<g>
		<line class="st22" x1="626.8002319" y1="26.9449463" x2="601.8540649" y2="58.7212524"/>
		<g>
			<polygon points="600.9113159,55.1245728 602.4643555,57.9439087 605.5717163,58.7833252 598.9050293,62.4777832 			"/>
		</g>
	</g>
</g>
<g>
	<g>
		<line class="st22" x1="622.6885986" y1="97.1769409" x2="617.9309082" y2="92.1734619"/>
		<g>
			<polygon points="621.6260986,91.7603149 618.6119385,92.8896484 617.3323364,95.8431396 614.6400146,88.7125244 			"/>
		</g>
	</g>
</g>
<g>
	<g>
		<line class="st22" x1="574.2484741" y1="106.3795471" x2="581.6867676" y2="92.2094116"/>
		<g>
			<polygon points="583.2655029,95.5758057 581.227417,93.0844727 578.0194092,92.8219604 583.9064941,87.980835 			"/>
		</g>
	</g>
</g>
</svg>
